<svg width="450" height="450" viewBox="0 0 450 450" fill="none" xmlns="http://www.w3.org/2000/svg">
<g clip-path="url(#clip0_22_16)">
<path d="M0 60C0 26.8629 26.8629 0 60 0H390C423.137 0 450 26.8629 450 60V390C450 423.137 423.137 450 390 450H60C26.8629 450 0 423.137 0 390V60Z" fill="#03071E"/>
<rect x="139.96" y="63.96" width="172.92" height="322.08" rx="11.88" stroke="#FFBA08" stroke-width="7.92"/>
<rect x="159.663" y="107.423" width="134.834" height="215.354" stroke="#FFBA08" stroke-width="5.0864"/>
<rect x="213.027" y="86.8674" width="28.1052" height="1.70518" fill="white"/>
<rect x="213.027" y="86.8674" width="28.1052" height="1.70518" stroke="#FFBA08" stroke-width="1.70518"/>
<rect x="216.602" y="339.922" width="22.1674" height="22.1674" rx="11.0837" stroke="#FFBA08" stroke-width="5.11555"/>
<rect width="428" height="127" transform="translate(12 164)" fill="#03071E"/>
<path d="M95.743 224.734L109.375 230.013C107.248 239.526 103.709 246.487 98.7594 250.895C93.8094 255.265 87.7186 257.45 80.4869 257.45C71.399 257.45 64.032 253.95 58.3859 246.951C51.8891 238.868 48.6406 227.963 48.6406 214.234C48.6406 199.732 51.9084 188.382 58.4439 180.184C64.1287 173.068 71.7664 169.51 81.357 169.51C89.1687 169.51 95.7043 172.179 100.964 177.515C104.715 181.305 107.461 186.932 109.201 194.396L95.2789 198.456C94.3895 193.854 92.6105 190.335 89.9422 187.899C87.3125 185.424 84.1994 184.186 80.6029 184.186C75.4596 184.186 71.2637 186.429 68.0152 190.915C64.7668 195.401 63.1426 202.807 63.1426 213.132C63.1426 223.844 64.7281 231.463 67.8992 235.987C71.0703 240.512 75.1889 242.774 80.2549 242.774C83.9674 242.774 87.1771 241.343 89.8842 238.482C92.5912 235.581 94.5441 230.999 95.743 224.734ZM121.44 256V170.961H173.183V185.346H135.478V204.199H170.515V218.527H135.478V241.672H174.46V256H121.44ZM186.757 256V171.657H200.795V241.672H235.832V256H186.757ZM246.273 256V171.657H260.311V241.672H295.348V256H246.273ZM302.715 236.335L315.651 234.595C316.269 240.899 318.783 244.05 323.192 244.05C326.169 244.05 328.606 242.484 330.501 239.352C332.396 236.181 333.614 229.78 334.155 220.151C332.492 222.51 330.617 224.289 328.528 225.488C326.44 226.687 324.12 227.286 321.567 227.286C316.269 227.286 311.571 224.753 307.471 219.687C303.411 214.621 301.381 207.892 301.381 199.5C301.381 190.529 303.527 183.471 307.82 178.328C312.112 173.184 317.41 170.613 323.714 170.613C330.752 170.613 336.553 173.938 341.116 180.59C345.679 187.203 347.961 198.186 347.961 213.538C347.961 229.162 345.583 240.396 340.826 247.241C336.069 254.086 329.901 257.508 322.321 257.508C317.062 257.508 312.712 255.787 309.27 252.346C305.867 248.865 303.682 243.528 302.715 236.335ZM332.995 200.719C332.995 195.382 331.989 191.283 329.979 188.421C327.968 185.559 325.686 184.128 323.134 184.128C320.659 184.128 318.59 185.308 316.927 187.667C315.303 190.026 314.49 193.951 314.49 199.442C314.49 204.934 315.38 208.956 317.159 211.508C318.976 214.06 321.2 215.337 323.83 215.337C326.343 215.337 328.49 214.118 330.269 211.682C332.086 209.246 332.995 205.591 332.995 200.719ZM356.894 236.335L369.83 234.595C370.449 240.899 372.962 244.05 377.371 244.05C380.349 244.05 382.785 242.484 384.68 239.352C386.575 236.181 387.793 229.78 388.334 220.151C386.671 222.51 384.796 224.289 382.708 225.488C380.619 226.687 378.299 227.286 375.747 227.286C370.449 227.286 365.75 224.753 361.651 219.687C357.59 214.621 355.56 207.892 355.56 199.5C355.56 190.529 357.706 183.471 361.999 178.328C366.291 173.184 371.589 170.613 377.893 170.613C384.931 170.613 390.732 173.938 395.295 180.59C399.859 187.203 402.14 198.186 402.14 213.538C402.14 229.162 399.762 240.396 395.005 247.241C390.249 254.086 384.08 257.508 376.501 257.508C371.241 257.508 366.891 255.787 363.449 252.346C360.046 248.865 357.861 243.528 356.894 236.335ZM387.174 200.719C387.174 195.382 386.169 191.283 384.158 188.421C382.147 185.559 379.865 184.128 377.313 184.128C374.838 184.128 372.769 185.308 371.106 187.667C369.482 190.026 368.67 193.951 368.67 199.442C368.67 204.934 369.559 208.956 371.338 211.508C373.156 214.06 375.379 215.337 378.009 215.337C380.523 215.337 382.669 214.118 384.448 211.682C386.265 209.246 387.174 205.591 387.174 200.719Z" fill="#FF0000"/>
<path d="M66.1562 283.406L65.0625 280.531H55.75L54.6562 283.469C54.2292 284.615 53.8646 285.391 53.5625 285.797C53.2604 286.193 52.7656 286.391 52.0781 286.391C51.4948 286.391 50.9792 286.177 50.5312 285.75C50.0833 285.323 49.8594 284.839 49.8594 284.297C49.8594 283.984 49.9115 283.661 50.0156 283.328C50.1198 282.995 50.2917 282.531 50.5312 281.938L56.3906 267.062C56.5573 266.635 56.7552 266.125 56.9844 265.531C57.224 264.927 57.474 264.427 57.7344 264.031C58.0052 263.635 58.3542 263.318 58.7812 263.078C59.2188 262.828 59.7552 262.703 60.3906 262.703C61.0365 262.703 61.5729 262.828 62 263.078C62.4375 263.318 62.7865 263.63 63.0469 264.016C63.3177 264.401 63.5417 264.818 63.7188 265.266C63.9062 265.703 64.1406 266.292 64.4219 267.031L70.4062 281.812C70.875 282.938 71.1094 283.755 71.1094 284.266C71.1094 284.797 70.8854 285.286 70.4375 285.734C70 286.172 69.4688 286.391 68.8438 286.391C68.4792 286.391 68.1667 286.323 67.9062 286.188C67.6458 286.062 67.4271 285.891 67.25 285.672C67.0729 285.443 66.8802 285.099 66.6719 284.641C66.474 284.172 66.3021 283.76 66.1562 283.406ZM56.9688 277.047H63.8125L60.3594 267.594L56.9688 277.047ZM93.2344 278.766C93.2344 279.495 93.0521 280.286 92.6875 281.141C92.3333 281.984 91.7708 282.818 91 283.641C90.2292 284.453 89.2448 285.115 88.0469 285.625C86.849 286.135 85.4531 286.391 83.8594 286.391C82.651 286.391 81.5521 286.276 80.5625 286.047C79.5729 285.818 78.6719 285.464 77.8594 284.984C77.0573 284.495 76.3177 283.854 75.6406 283.062C75.0365 282.344 74.5208 281.542 74.0938 280.656C73.6667 279.76 73.3438 278.807 73.125 277.797C72.9167 276.786 72.8125 275.714 72.8125 274.578C72.8125 272.734 73.0781 271.083 73.6094 269.625C74.151 268.167 74.9219 266.922 75.9219 265.891C76.9219 264.849 78.0938 264.057 79.4375 263.516C80.7812 262.974 82.2135 262.703 83.7344 262.703C85.5885 262.703 87.2396 263.073 88.6875 263.812C90.1354 264.552 91.2448 265.469 92.0156 266.562C92.7865 267.646 93.1719 268.672 93.1719 269.641C93.1719 270.172 92.9844 270.641 92.6094 271.047C92.2344 271.453 91.7812 271.656 91.25 271.656C90.6562 271.656 90.2083 271.516 89.9062 271.234C89.6146 270.953 89.2865 270.469 88.9219 269.781C88.3177 268.646 87.6042 267.797 86.7812 267.234C85.9688 266.672 84.9635 266.391 83.7656 266.391C81.8594 266.391 80.3385 267.115 79.2031 268.562C78.0781 270.01 77.5156 272.068 77.5156 274.734C77.5156 276.516 77.7656 278 78.2656 279.188C78.7656 280.365 79.474 281.245 80.3906 281.828C81.3073 282.411 82.3802 282.703 83.6094 282.703C84.9427 282.703 86.0677 282.375 86.9844 281.719C87.9115 281.052 88.6094 280.078 89.0781 278.797C89.276 278.193 89.5208 277.703 89.8125 277.328C90.1042 276.943 90.5729 276.75 91.2188 276.75C91.7708 276.75 92.2448 276.943 92.6406 277.328C93.0365 277.714 93.2344 278.193 93.2344 278.766ZM112.281 266.922H107.219V283.562C107.219 284.521 107.005 285.234 106.578 285.703C106.151 286.161 105.599 286.391 104.922 286.391C104.234 286.391 103.672 286.156 103.234 285.688C102.807 285.219 102.594 284.51 102.594 283.562V266.922H97.5312C96.7396 266.922 96.151 266.75 95.7656 266.406C95.3802 266.052 95.1875 265.589 95.1875 265.016C95.1875 264.422 95.3854 263.953 95.7812 263.609C96.1875 263.266 96.7708 263.094 97.5312 263.094H112.281C113.083 263.094 113.677 263.271 114.062 263.625C114.458 263.979 114.656 264.443 114.656 265.016C114.656 265.589 114.458 266.052 114.062 266.406C113.667 266.75 113.073 266.922 112.281 266.922ZM117.594 283.562V265.516C117.594 264.578 117.807 263.875 118.234 263.406C118.661 262.938 119.214 262.703 119.891 262.703C120.589 262.703 121.151 262.938 121.578 263.406C122.016 263.865 122.234 264.568 122.234 265.516V283.562C122.234 284.51 122.016 285.219 121.578 285.688C121.151 286.156 120.589 286.391 119.891 286.391C119.224 286.391 118.672 286.156 118.234 285.688C117.807 285.208 117.594 284.5 117.594 283.562ZM130.828 265.75L136.016 281.109L141.219 265.641C141.49 264.828 141.693 264.266 141.828 263.953C141.964 263.63 142.188 263.344 142.5 263.094C142.812 262.833 143.24 262.703 143.781 262.703C144.177 262.703 144.542 262.802 144.875 263C145.219 263.198 145.484 263.464 145.672 263.797C145.87 264.12 145.969 264.448 145.969 264.781C145.969 265.01 145.938 265.26 145.875 265.531C145.812 265.792 145.734 266.052 145.641 266.312C145.547 266.562 145.453 266.823 145.359 267.094L139.812 282.062C139.615 282.635 139.417 283.182 139.219 283.703C139.021 284.214 138.792 284.667 138.531 285.062C138.271 285.448 137.922 285.766 137.484 286.016C137.057 286.266 136.531 286.391 135.906 286.391C135.281 286.391 134.75 286.266 134.312 286.016C133.885 285.776 133.536 285.458 133.266 285.062C133.005 284.656 132.776 284.198 132.578 283.688C132.38 283.177 132.182 282.635 131.984 282.062L126.531 267.219C126.438 266.948 126.339 266.682 126.234 266.422C126.141 266.161 126.057 265.88 125.984 265.578C125.922 265.276 125.891 265.021 125.891 264.812C125.891 264.281 126.104 263.797 126.531 263.359C126.958 262.922 127.495 262.703 128.141 262.703C128.932 262.703 129.49 262.948 129.812 263.438C130.146 263.917 130.484 264.688 130.828 265.75ZM162.5 283.406L161.406 280.531H152.094L151 283.469C150.573 284.615 150.208 285.391 149.906 285.797C149.604 286.193 149.109 286.391 148.422 286.391C147.839 286.391 147.323 286.177 146.875 285.75C146.427 285.323 146.203 284.839 146.203 284.297C146.203 283.984 146.255 283.661 146.359 283.328C146.464 282.995 146.635 282.531 146.875 281.938L152.734 267.062C152.901 266.635 153.099 266.125 153.328 265.531C153.568 264.927 153.818 264.427 154.078 264.031C154.349 263.635 154.698 263.318 155.125 263.078C155.562 262.828 156.099 262.703 156.734 262.703C157.38 262.703 157.917 262.828 158.344 263.078C158.781 263.318 159.13 263.63 159.391 264.016C159.661 264.401 159.885 264.818 160.062 265.266C160.25 265.703 160.484 266.292 160.766 267.031L166.75 281.812C167.219 282.938 167.453 283.755 167.453 284.266C167.453 284.797 167.229 285.286 166.781 285.734C166.344 286.172 165.812 286.391 165.188 286.391C164.823 286.391 164.51 286.323 164.25 286.188C163.99 286.062 163.771 285.891 163.594 285.672C163.417 285.443 163.224 285.099 163.016 284.641C162.818 284.172 162.646 283.76 162.5 283.406ZM153.312 277.047H160.156L156.703 267.594L153.312 277.047ZM182.938 266.922H177.875V283.562C177.875 284.521 177.661 285.234 177.234 285.703C176.807 286.161 176.255 286.391 175.578 286.391C174.891 286.391 174.328 286.156 173.891 285.688C173.464 285.219 173.25 284.51 173.25 283.562V266.922H168.188C167.396 266.922 166.807 266.75 166.422 266.406C166.036 266.052 165.844 265.589 165.844 265.016C165.844 264.422 166.042 263.953 166.438 263.609C166.844 263.266 167.427 263.094 168.188 263.094H182.938C183.74 263.094 184.333 263.271 184.719 263.625C185.115 263.979 185.312 264.443 185.312 265.016C185.312 265.589 185.115 266.052 184.719 266.406C184.323 266.75 183.729 266.922 182.938 266.922ZM188.25 283.562V265.516C188.25 264.578 188.464 263.875 188.891 263.406C189.318 262.938 189.87 262.703 190.547 262.703C191.245 262.703 191.807 262.938 192.234 263.406C192.672 263.865 192.891 264.568 192.891 265.516V283.562C192.891 284.51 192.672 285.219 192.234 285.688C191.807 286.156 191.245 286.391 190.547 286.391C189.88 286.391 189.328 286.156 188.891 285.688C188.464 285.208 188.25 284.5 188.25 283.562ZM208.172 262.703C210.547 262.703 212.583 263.188 214.281 264.156C215.99 265.115 217.281 266.484 218.156 268.266C219.031 270.036 219.469 272.12 219.469 274.516C219.469 276.286 219.229 277.896 218.75 279.344C218.271 280.792 217.552 282.047 216.594 283.109C215.635 284.172 214.458 284.984 213.062 285.547C211.667 286.109 210.068 286.391 208.266 286.391C206.474 286.391 204.87 286.104 203.453 285.531C202.036 284.948 200.854 284.13 199.906 283.078C198.958 282.026 198.24 280.76 197.75 279.281C197.271 277.802 197.031 276.203 197.031 274.484C197.031 272.724 197.281 271.109 197.781 269.641C198.292 268.172 199.026 266.922 199.984 265.891C200.943 264.859 202.109 264.073 203.484 263.531C204.859 262.979 206.422 262.703 208.172 262.703ZM214.766 274.484C214.766 272.807 214.495 271.354 213.953 270.125C213.411 268.896 212.635 267.969 211.625 267.344C210.625 266.708 209.474 266.391 208.172 266.391C207.245 266.391 206.385 266.568 205.594 266.922C204.812 267.266 204.135 267.771 203.562 268.438C203 269.104 202.552 269.958 202.219 271C201.896 272.031 201.734 273.193 201.734 274.484C201.734 275.786 201.896 276.964 202.219 278.016C202.552 279.068 203.016 279.943 203.609 280.641C204.214 281.328 204.901 281.844 205.672 282.188C206.453 282.531 207.307 282.703 208.234 282.703C209.422 282.703 210.51 282.406 211.5 281.812C212.5 281.219 213.292 280.302 213.875 279.062C214.469 277.823 214.766 276.297 214.766 274.484ZM229.484 265.484L238.406 278.984V265.359C238.406 264.474 238.594 263.812 238.969 263.375C239.354 262.927 239.87 262.703 240.516 262.703C241.182 262.703 241.708 262.927 242.094 263.375C242.479 263.812 242.672 264.474 242.672 265.359V283.375C242.672 285.385 241.839 286.391 240.172 286.391C239.755 286.391 239.38 286.328 239.047 286.203C238.714 286.089 238.401 285.901 238.109 285.641C237.818 285.38 237.547 285.078 237.297 284.734C237.047 284.38 236.797 284.021 236.547 283.656L227.844 270.312V283.734C227.844 284.609 227.641 285.271 227.234 285.719C226.828 286.167 226.307 286.391 225.672 286.391C225.016 286.391 224.49 286.167 224.094 285.719C223.698 285.26 223.5 284.599 223.5 283.734V266.062C223.5 265.312 223.583 264.724 223.75 264.297C223.948 263.828 224.276 263.448 224.734 263.156C225.193 262.854 225.688 262.703 226.219 262.703C226.635 262.703 226.99 262.771 227.281 262.906C227.583 263.042 227.844 263.224 228.062 263.453C228.292 263.682 228.521 263.979 228.75 264.344C228.99 264.708 229.234 265.089 229.484 265.484ZM258.203 267.953C258.203 266.984 258.453 266.104 258.953 265.312C259.464 264.51 260.208 263.875 261.188 263.406C262.167 262.938 263.318 262.703 264.641 262.703C265.953 262.703 267.089 262.948 268.047 263.438C269.005 263.927 269.719 264.568 270.188 265.359C270.667 266.151 270.906 266.974 270.906 267.828C270.906 268.995 270.521 270.01 269.75 270.875C268.979 271.74 267.844 272.62 266.344 273.516C266.865 274.13 267.349 274.708 267.797 275.25C268.245 275.792 268.677 276.297 269.094 276.766C269.51 277.234 269.891 277.635 270.234 277.969C270.391 277.677 270.63 277.13 270.953 276.328C271.286 275.526 271.594 274.948 271.875 274.594C272.167 274.24 272.573 274.062 273.094 274.062C273.583 274.062 274.016 274.24 274.391 274.594C274.766 274.938 274.953 275.359 274.953 275.859C274.953 276.318 274.792 276.969 274.469 277.812C274.146 278.646 273.677 279.573 273.062 280.594C273.448 280.927 274.057 281.432 274.891 282.109C275.734 282.786 276.25 283.25 276.438 283.5C276.635 283.74 276.734 284.062 276.734 284.469C276.734 285.01 276.536 285.469 276.141 285.844C275.755 286.208 275.323 286.391 274.844 286.391C274.354 286.391 273.88 286.234 273.422 285.922C272.964 285.609 271.99 284.844 270.5 283.625C269.823 284.26 269.12 284.781 268.391 285.188C267.672 285.594 266.896 285.896 266.062 286.094C265.24 286.292 264.318 286.391 263.297 286.391C261.995 286.391 260.823 286.203 259.781 285.828C258.75 285.443 257.891 284.927 257.203 284.281C256.516 283.635 256.005 282.922 255.672 282.141C255.339 281.349 255.172 280.547 255.172 279.734C255.172 278.953 255.297 278.24 255.547 277.594C255.797 276.938 256.146 276.349 256.594 275.828C257.052 275.297 257.609 274.797 258.266 274.328C258.932 273.849 259.703 273.385 260.578 272.938C259.797 271.958 259.203 271.089 258.797 270.328C258.401 269.557 258.203 268.766 258.203 267.953ZM262.625 275.438C261.562 276.052 260.766 276.667 260.234 277.281C259.714 277.896 259.453 278.625 259.453 279.469C259.453 279.948 259.547 280.406 259.734 280.844C259.932 281.281 260.214 281.688 260.578 282.062C260.953 282.438 261.385 282.724 261.875 282.922C262.365 283.12 262.88 283.219 263.422 283.219C263.953 283.219 264.469 283.135 264.969 282.969C265.469 282.802 265.943 282.568 266.391 282.266C266.839 281.953 267.302 281.568 267.781 281.109C266.854 280.255 266.021 279.411 265.281 278.578C264.542 277.734 263.656 276.688 262.625 275.438ZM264.219 271.156C265.281 270.479 266.047 269.911 266.516 269.453C266.995 268.984 267.234 268.422 267.234 267.766C267.234 267.12 266.995 266.578 266.516 266.141C266.047 265.703 265.453 265.484 264.734 265.484C264.016 265.484 263.411 265.708 262.922 266.156C262.443 266.604 262.203 267.13 262.203 267.734C262.203 268.047 262.292 268.385 262.469 268.75C262.656 269.104 262.885 269.458 263.156 269.812C263.427 270.167 263.781 270.615 264.219 271.156ZM294.297 276.203H292.672V283.562C292.672 284.531 292.458 285.245 292.031 285.703C291.604 286.161 291.047 286.391 290.359 286.391C289.62 286.391 289.047 286.151 288.641 285.672C288.234 285.193 288.031 284.49 288.031 283.562V265.938C288.031 264.938 288.255 264.214 288.703 263.766C289.151 263.318 289.875 263.094 290.875 263.094H298.422C299.464 263.094 300.354 263.141 301.094 263.234C301.833 263.318 302.5 263.495 303.094 263.766C303.812 264.068 304.448 264.5 305 265.062C305.552 265.625 305.969 266.281 306.25 267.031C306.542 267.771 306.688 268.557 306.688 269.391C306.688 271.099 306.203 272.464 305.234 273.484C304.276 274.505 302.818 275.229 300.859 275.656C301.682 276.094 302.469 276.74 303.219 277.594C303.969 278.448 304.635 279.359 305.219 280.328C305.812 281.286 306.271 282.156 306.594 282.938C306.927 283.708 307.094 284.24 307.094 284.531C307.094 284.833 306.995 285.135 306.797 285.438C306.609 285.729 306.349 285.958 306.016 286.125C305.682 286.302 305.297 286.391 304.859 286.391C304.339 286.391 303.901 286.266 303.547 286.016C303.193 285.776 302.885 285.469 302.625 285.094C302.375 284.719 302.031 284.167 301.594 283.438L299.734 280.344C299.068 279.208 298.469 278.344 297.938 277.75C297.417 277.156 296.885 276.75 296.344 276.531C295.802 276.312 295.12 276.203 294.297 276.203ZM296.953 266.578H292.672V272.875H296.828C297.943 272.875 298.88 272.781 299.641 272.594C300.401 272.396 300.979 272.068 301.375 271.609C301.781 271.141 301.984 270.5 301.984 269.688C301.984 269.052 301.823 268.495 301.5 268.016C301.177 267.526 300.729 267.161 300.156 266.922C299.615 266.693 298.547 266.578 296.953 266.578ZM326.188 266.672H315.734V272.297H325.359C326.068 272.297 326.594 272.458 326.938 272.781C327.292 273.094 327.469 273.51 327.469 274.031C327.469 274.552 327.297 274.979 326.953 275.312C326.609 275.635 326.078 275.797 325.359 275.797H315.734V282.312H326.547C327.276 282.312 327.823 282.484 328.188 282.828C328.562 283.161 328.75 283.609 328.75 284.172C328.75 284.714 328.562 285.156 328.188 285.5C327.823 285.833 327.276 286 326.547 286H313.938C312.927 286 312.198 285.776 311.75 285.328C311.312 284.88 311.094 284.156 311.094 283.156V265.938C311.094 265.271 311.193 264.729 311.391 264.312C311.589 263.885 311.896 263.578 312.312 263.391C312.74 263.193 313.281 263.094 313.938 263.094H326.188C326.927 263.094 327.474 263.26 327.828 263.594C328.193 263.917 328.375 264.344 328.375 264.875C328.375 265.417 328.193 265.854 327.828 266.188C327.474 266.51 326.927 266.672 326.188 266.672ZM341.328 277.078H337.078V283.562C337.078 284.49 336.859 285.193 336.422 285.672C335.984 286.151 335.432 286.391 334.766 286.391C334.068 286.391 333.505 286.156 333.078 285.688C332.651 285.208 332.438 284.51 332.438 283.594V265.938C332.438 264.917 332.672 264.188 333.141 263.75C333.609 263.312 334.354 263.094 335.375 263.094H341.328C343.089 263.094 344.443 263.229 345.391 263.5C346.328 263.76 347.135 264.193 347.812 264.797C348.5 265.401 349.021 266.141 349.375 267.016C349.729 267.891 349.906 268.875 349.906 269.969C349.906 272.302 349.188 274.073 347.75 275.281C346.312 276.479 344.172 277.078 341.328 277.078ZM340.203 266.578H337.078V273.578H340.203C341.297 273.578 342.208 273.464 342.938 273.234C343.677 273.005 344.24 272.63 344.625 272.109C345.01 271.589 345.203 270.906 345.203 270.062C345.203 269.052 344.906 268.229 344.312 267.594C343.646 266.917 342.276 266.578 340.203 266.578ZM365.625 283.406L364.531 280.531H355.219L354.125 283.469C353.698 284.615 353.333 285.391 353.031 285.797C352.729 286.193 352.234 286.391 351.547 286.391C350.964 286.391 350.448 286.177 350 285.75C349.552 285.323 349.328 284.839 349.328 284.297C349.328 283.984 349.38 283.661 349.484 283.328C349.589 282.995 349.76 282.531 350 281.938L355.859 267.062C356.026 266.635 356.224 266.125 356.453 265.531C356.693 264.927 356.943 264.427 357.203 264.031C357.474 263.635 357.823 263.318 358.25 263.078C358.688 262.828 359.224 262.703 359.859 262.703C360.505 262.703 361.042 262.828 361.469 263.078C361.906 263.318 362.255 263.63 362.516 264.016C362.786 264.401 363.01 264.818 363.188 265.266C363.375 265.703 363.609 266.292 363.891 267.031L369.875 281.812C370.344 282.938 370.578 283.755 370.578 284.266C370.578 284.797 370.354 285.286 369.906 285.734C369.469 286.172 368.938 286.391 368.312 286.391C367.948 286.391 367.635 286.323 367.375 286.188C367.115 286.062 366.896 285.891 366.719 285.672C366.542 285.443 366.349 285.099 366.141 284.641C365.943 284.172 365.771 283.76 365.625 283.406ZM356.438 277.047H363.281L359.828 267.594L356.438 277.047ZM374.188 283.562V265.516C374.188 264.578 374.401 263.875 374.828 263.406C375.255 262.938 375.807 262.703 376.484 262.703C377.182 262.703 377.745 262.938 378.172 263.406C378.609 263.865 378.828 264.568 378.828 265.516V283.562C378.828 284.51 378.609 285.219 378.172 285.688C377.745 286.156 377.182 286.391 376.484 286.391C375.818 286.391 375.266 286.156 374.828 285.688C374.401 285.208 374.188 284.5 374.188 283.562ZM390.266 276.203H388.641V283.562C388.641 284.531 388.427 285.245 388 285.703C387.573 286.161 387.016 286.391 386.328 286.391C385.589 286.391 385.016 286.151 384.609 285.672C384.203 285.193 384 284.49 384 283.562V265.938C384 264.938 384.224 264.214 384.672 263.766C385.12 263.318 385.844 263.094 386.844 263.094H394.391C395.432 263.094 396.323 263.141 397.062 263.234C397.802 263.318 398.469 263.495 399.062 263.766C399.781 264.068 400.417 264.5 400.969 265.062C401.521 265.625 401.938 266.281 402.219 267.031C402.51 267.771 402.656 268.557 402.656 269.391C402.656 271.099 402.172 272.464 401.203 273.484C400.245 274.505 398.786 275.229 396.828 275.656C397.651 276.094 398.438 276.74 399.188 277.594C399.938 278.448 400.604 279.359 401.188 280.328C401.781 281.286 402.24 282.156 402.562 282.938C402.896 283.708 403.062 284.24 403.062 284.531C403.062 284.833 402.964 285.135 402.766 285.438C402.578 285.729 402.318 285.958 401.984 286.125C401.651 286.302 401.266 286.391 400.828 286.391C400.307 286.391 399.87 286.266 399.516 286.016C399.161 285.776 398.854 285.469 398.594 285.094C398.344 284.719 398 284.167 397.562 283.438L395.703 280.344C395.036 279.208 394.438 278.344 393.906 277.75C393.385 277.156 392.854 276.75 392.312 276.531C391.771 276.312 391.089 276.203 390.266 276.203ZM392.922 266.578H388.641V272.875H392.797C393.911 272.875 394.849 272.781 395.609 272.594C396.37 272.396 396.948 272.068 397.344 271.609C397.75 271.141 397.953 270.5 397.953 269.688C397.953 269.052 397.792 268.495 397.469 268.016C397.146 267.526 396.698 267.161 396.125 266.922C395.583 266.693 394.516 266.578 392.922 266.578Z" fill="white"/>
</g>
<defs>
<clipPath id="clip0_22_16">
<path d="M0 60C0 26.8629 26.8629 0 60 0H390C423.137 0 450 26.8629 450 60V390C450 423.137 423.137 450 390 450H60C26.8629 450 0 423.137 0 390V60Z" fill="white"/>
</clipPath>
</defs>
</svg>
